<svg width="36" height="38" viewBox="0 0 36 38" fill="none" xmlns="http://www.w3.org/2000/svg">
<g clip-path="url(#clip0_1796_3476)">
<path d="M3.93572 16.7222L6.31349 10.7011L7.46598 7.78843C7.87221 6.76281 8.35221 5.73962 8.67055 4.68422C8.78797 4.30284 8.41077 4.22769 8.10993 4.27516C7.71708 4.33679 7.25642 4.5974 7.08013 4.96472C6.59598 5.96719 6.23869 7.04334 5.82998 8.07809L4.6775 10.9908L2.29558 17.0127C2.14086 17.4016 2.591 17.475 2.87527 17.4309C3.25569 17.3717 3.78349 17.102 3.93489 16.7181L3.93572 16.7222Z" fill="#0F1FD1"/>
<path d="M11.7141 21.2217C18.059 17.6329 24.4413 14.1013 30.7456 10.4388C30.9659 10.3127 31.497 9.99483 31.3351 9.66091C31.1766 9.34356 30.57 9.54294 30.3604 9.65831C23.9748 13.1733 17.6581 16.8168 11.314 20.4096C11.082 20.5424 10.5277 20.8736 10.7012 21.2224C10.8622 21.5522 11.5028 21.3503 11.7191 21.225L11.7141 21.2217Z" fill="#0F1FD1"/>
<path d="M11.8899 29.2689L17.8596 31.5837L20.7955 32.7229C21.8054 33.115 22.8136 33.5635 23.8475 33.8819C24.2006 33.9877 24.668 33.7603 24.9314 33.5479C25.0689 33.4384 25.4855 33.0012 25.1613 32.8465C24.1787 32.3756 23.1299 32.0257 22.1159 31.6344L19.18 30.4952L13.1117 28.1398C12.5695 27.9297 11.0907 28.9594 11.8858 29.2697L11.8899 29.2689Z" fill="#0F1FD1"/>
</g>
<defs>
<clipPath id="clip0_1796_3476">
<rect width="29.9911" height="32.21" fill="white" transform="translate(0 5.90332) rotate(-11.3521)"/>
</clipPath>
</defs>
</svg>
